<svg xmlns="http://www.w3.org/2000/svg" viewBox="0 0 24 24" fill="none" stroke="currentColor" stroke-width="2" stroke-linecap="round" stroke-linejoin="round">
  <path d="M23 3a10.9 10.9 0 0 1-3.14 1.53 4.57 4.57 0 0 0-7.86 3.38 4.54 4.54 0 0 0 1.26 3.12L13 13c-.76.66-1.72 1.1-2.76 1.33a4.57 4.57 0 0 0 2.24 2.12 4.57 4.57 0 0 0 4.18-.18 4.57 4.57 0 0 0 2.06-2.06 4.57 4.57 0 0 0-.42-5.71 4.57 4.57 0 0 0-3.57-2.48c-.19-.02-.38-.04-.58-.06z"/>
  <path d="M10 17.99c.67.02 1.34.04 2.01.04 5.06 0 9.17-4.11 9.17-9.17v-.02c0-1.12-.22-2.18-.62-3.15a4.57 4.57 0 0 0-1.07-1.73"/>
</svg>